<svg xmlns="http://www.w3.org/2000/svg" viewBox="0 0 128 128">
    <defs>
        <radialGradient id="bg" cx="50%" cy="42%" r="70%">
            <stop offset="0%" stop-color="#2f2f2d" />
            <stop offset="100%" stop-color="#11110f" />
        </radialGradient>
        <linearGradient id="mark" x1="28" x2="94" y1="20" y2="108">
            <stop offset="0%" stop-color="#f8f5ef" />
            <stop offset="100%" stop-color="#c9c2b8" />
        </linearGradient>
    </defs>
    <rect width="128" height="128" rx="24" fill="url(#bg)" />
    <path
        fill="url(#mark)"
        d="M43 22h18v34c5.3-5.1 12.1-7.7 20.4-7.7 9.6 0 17.5 3.4 23.5 10.2 6.1 6.8 9.1 15.5 9.1 26.1s-3 19.3-9.1 26.1c-6 6.8-13.9 10.2-23.5 10.2-8.7 0-15.8-2.9-21.2-8.7v7H43V22Zm35.7 82.1c5.3 0 9.6-1.8 12.8-5.3 3.2-3.6 4.8-8.3 4.8-14.2s-1.6-10.6-4.8-14.1c-3.2-3.6-7.5-5.4-12.8-5.4-5.2 0-9.5 1.8-12.8 5.4-3.2 3.5-4.8 8.2-4.8 14.1s1.6 10.6 4.8 14.2c3.3 3.5 7.6 5.3 12.8 5.3Z"
    />
</svg>
